#!OML:ASF F:\VICON\USERDATA\INSTALL\rory3\rory3.ASF
:FULLY-SPECIFIED
:DEGREES
298
root 6.53692 15.9929 -34.7994 23.8544 -21.8765 -6.22256
lowerback -5.18593 -0.828152 0.533199
upperback -4.86861 -1.12992 2.53834
thorax -2.06463 -0.556587 2.27675
lowerneck -17.5418 1.34373 1.9438
upperneck 32.0252 1.59939 -1.38249
head 13.8419 0.665112 -0.639326
rclavicle -1.68967e-014 1.09332e-014
rhumerus -42.448 36.0446 -80.8469
rradius 112.471
rwrist -56.7237
rhand 19.3188 2.78029
rfingers 7.12502
rthumb 43.9 -21.1398
lclavicle -1.68967e-014 1.09332e-014
lhumerus -47.2695 -65.8922 96.3168
lradius 107.241
lwrist 7.09149
lhand 4.72503 7.59958
lfingers 7.12502
lthumb 30.1077 35.1673
rfemur -48.0334 -0.543991 22.3293
rtibia 55.1578
rfoot -25.7922 -26.1127
rtoes 12.9515
lfemur -36.9734 -5.54221 -23.5941
ltibia 42.3858
lfoot -54.6519 26.303
ltoes 7.90224
299
root 6.52739 16.0094 -34.771 23.9557 -21.6446 -6.26385
lowerback -4.55541 -0.92822 0.401068
upperback -5.10654 -1.24038 2.77597
thorax -2.65241 -0.601243 2.60902
lowerneck -17.7493 1.4178 1.78688
upperneck 31.7629 1.80633 -1.51104
head 13.7771 0.719363 -0.625688
rclavicle 1.51325e-014 -1.11319e-014
rhumerus -42.6384 35.3215 -81.518
rradius 111.84
rwrist -57.7701
rhand 19.3997 2.32994
rfingers 7.12502
rthumb 43.9754 -21.5621
lclavicle 1.51325e-014 -1.11319e-014
lhumerus -48.493 -66.6577 98.9215
lradius 106.014
lwrist 6.15164
lhand 4.08389 7.49738
lfingers 7.12502
lthumb 29.4958 35.1748
rfemur -48.8517 0.28931 21.8519
rtibia 53.782
rfoot -26.368 -25.9197
rtoes 13.9604
lfemur -36.7875 -5.58825 -23.4994
ltibia 42.0744
lfoot -54.3097 26.809
ltoes 6.57461
300
root 6.51626 16.0256 -34.7433 24.1368 -21.3661 -6.42169
lowerback -4.93139 -1.55929 0.910693
upperback -5.23623 -2.10394 3.02887
thorax -2.55057 -1.04922 2.5558
lowerneck -15.9011 2.02133 1.1349
upperneck 30.5193 2.8095 -1.25853
head 12.8553 1.12825 -0.261581
rclavicle -3.85394e-014 3.49861e-014
rhumerus -42.696 36.1661 -83.1613
rradius 110.836
rwrist -58.6269
rhand 19.1332 2.28906
rfingers 7.12502
rthumb 43.7267 -21.695
lclavicle -3.85394e-014 3.49861e-014
lhumerus -50.4209 -65.7969 101.294
lradius 104.682
lwrist 5.0207
lhand 2.79581 8.07223
lfingers 7.12502
lthumb 28.2654 35.9599
rfemur -49.7314 1.29854 21.4311
rtibia 52.4232
rfoot -26.3244 -26.2939
rtoes 13.2433
lfemur -36.6407 -5.67881 -23.2584
ltibia 41.6999
lfoot -53.8996 27.1124
ltoes 6.51857
301
root 6.50699 16.0463 -34.706 24.1638 -21.2459 -6.55787
lowerback -4.70966 -1.49491 1.32756
upperback -5.12085 -2.0263 2.84919
thorax -2.57769 -1.02559 2.14277
lowerneck -16.4265 2.02999 1.33054
upperneck 30.2769 2.74775 -1.20979
head 12.868 1.13225 -0.280371
rclavicle -4.52981e-014 1.78906e-015
rhumerus -42.4364 34.9386 -84.1684
rradius 109.772
rwrist -59.2478
rhand 18.8041 2.55425
rfingers 7.12502
rthumb 43.4195 -21.5418
lclavicle -4.52981e-014 1.78906e-015
lhumerus -48.5418 -66.2827 100.382
lradius 102.693
lwrist 1.53284
lhand 5.35673 6.29897
lfingers 7.12502
lthumb 30.7102 33.7553
rfemur -50.422 2.28693 20.9167
rtibia 51.0626
rfoot -26.1307 -26.5708
rtoes 12.9006
lfemur -36.21 -5.77614 -23.1201
ltibia 41.2139
lfoot -53.6238 27.5701
ltoes 5.75657
302
root 6.48872 16.0727 -34.7055 24.4628 -20.6036 -6.34872
lowerback -4.23414 -1.52836 1.03036
upperback -5.21254 -2.0474 2.83656
thorax -2.92821 -1.02534 2.31301
lowerneck -17.6006 1.94591 1.60624
upperneck 30.3 2.58213 -1.34286
head 13.1316 1.07118 -0.394171
rclavicle -5.48646e-014 -2.72335e-014
rhumerus -42.132 33.448 -84.7829
rradius 108.637
rwrist -59.5812
rhand 18.5659 2.60259
rfingers 7.12502
rthumb 43.1969 -21.5734
lclavicle -5.48646e-014 -2.72335e-014
lhumerus -48.0256 -67.7824 101.321
lradius 100.947
lwrist 0.0263233
lhand 4.93099 6.25106
lfingers 7.12502
lthumb 30.3042 33.7828
rfemur -51.6653 3.02133 20.2179
rtibia 49.7596
rfoot -26.2638 -26.9018
rtoes 14.0245
lfemur -36.3907 -5.38108 -23.1564
ltibia 40.6769
lfoot -52.2348 27.601
ltoes 4.31796
303
root 6.48299 16.0887 -34.6405 23.9764 -20.8562 -6.41004
lowerback -3.78036 -1.29867 1.3079
upperback -4.82584 -1.7419 2.58539
thorax -2.80544 -0.883522 1.90693
lowerneck -18.6311 1.98006 2.01323
upperneck 30.2587 2.53443 -1.47399
head 13.3426 1.07779 -0.513843
rclavicle 1.64991e-014 1.59028e-014
rhumerus -41.6789 32.0487 -85.5898
rradius 107.266
rwrist -59.8221
rhand 18.3701 2.42129
rfingers 7.12502
rthumb 43.0138 -21.8198
lclavicle 1.64991e-014 1.59028e-014
lhumerus -48.2234 -69.1373 102.836
lradius 99.2868
lwrist -0.511502
lhand 3.96056 7.01161
lfingers 7.12502
lthumb 29.378 34.7097
rfemur -51.8317 4.05556 19.5214
rtibia 48.4625
rfoot -26.1506 -27.0077
rtoes 14.0576
lfemur -35.1836 -6.20819 -23.0936
ltibia 40.0395
lfoot -53.3504 27.7243
ltoes 4.92901
304
root 6.46833 16.1119 -34.6065 24.0578 -20.4106 -6.28057
lowerback -3.69204 -1.47426 1.34438
upperback -4.86945 -1.97327 2.61914
thorax -2.89511 -1.0002 1.9221
lowerneck -18.9814 2.1108 2.11935
upperneck 30.1292 2.75829 -1.69253
head 13.3737 1.1573 -0.576463
rclavicle 3.34455e-014 -2.62396e-014
rhumerus -41.4629 31.2326 -86.509
rradius 105.658
rwrist -60.0509
rhand 18.3169 2.40967
rfingers 7.12502
rthumb 42.964 -21.849
lclavicle 3.34455e-014 -2.62396e-014
lhumerus -49.8233 -69.7676 105.753
lradius 97.4282
lwrist -0.761682
lhand 2.66201 7.60604
lfingers 7.12502
lthumb 28.1375 35.5148
rfemur -52.7449 4.78315 18.8
rtibia 47.2469
rfoot -25.9287 -27.6161
rtoes 14.2222
lfemur -34.8963 -6.23091 -23.1024
ltibia 39.4045
lfoot -52.6667 27.8776
ltoes 3.9332
